<svg xmlns="http://www.w3.org/2000/svg" viewBox="0 0 383.89 442.78"><defs><style>.cls-1{fill:#edd559;}.cls-2{fill:#181a52;}</style></defs><g id="Layer_2" data-name="Layer 2"><g id="Layer_1-2" data-name="Layer 1"><path class="cls-1" d="M42.55,0H341.34a42.54,42.54,0,0,1,42.55,42.55V291.63H0V42.55A42.54,42.54,0,0,1,42.55,0Z"/><path class="cls-1" d="M383.89,291.63c0,89.29-82.29,151.15-189.41,151.15S0,380.92,0,291.63,86.84,130,194,130,383.89,202.34,383.89,291.63Z"/><path class="cls-2" d="M242.76,91.22l64.36-8.65,10.78,64,57.15,30.84-28.92,58.14,31.76,52-61.23,36.54L305,388.05l-64.24-9.54-47,44.82-46.36-45.47-64.36,8.65-10.78-64L6,287.63l38.05-54.14L15.94,175l57.58-30L85.18,81l64.23,9.54,47-44.82Z"/><path class="cls-2" d="M47.24,4.58H336.65A41.21,41.21,0,0,1,377.86,45.8V287.05H6V45.8A41.21,41.21,0,0,1,47.24,4.58Z"/><path class="cls-1" d="M268.45,59.68V96.15H187.3v67.93h77.58v36.46H187.3V309.23H141.18V59.68Z"/></g></g></svg>